<svg xmlns="http://www.w3.org/2000/svg" xmlns:xlink="http://www.w3.org/1999/xlink" viewBox="0,0,256,256" width="50px" height="50px" fill-rule="nonzero"><g fill="#000000" fill-rule="nonzero" stroke="none" stroke-width="1" stroke-linecap="butt" stroke-linejoin="miter" stroke-miterlimit="10" stroke-dasharray="" stroke-dashoffset="0" font-family="none" font-weight="none" font-size="none" text-anchor="none" style="mix-blend-mode: normal"><g transform="scale(5.12,5.12)"><path d="M36.0625,0c-0.9375,0 -1.92187,0.55078 -2.65625,1.5l-8.28125,11.625c-1.19141,-0.28125 -2.39844,-0.40625 -3.625,-0.40625c-4.21094,0 -8.17969,1.64844 -11.15625,4.625c-0.1875,0.1875 -0.28125,0.42188 -0.28125,0.6875c0,0.26563 0.09375,0.53125 0.28125,0.71875l20.90625,20.90625c0.19531,0.19531 0.42969,0.28125 0.6875,0.28125c0.25781,0 0.52344,-0.11719 0.71875,-0.3125c3.93359,-3.92969 5.49609,-9.60156 4.15625,-14.96875l11.6875,-7.96875c0.875,-0.65234 1.43359,-1.54687 1.5,-2.4375c0.05078,-0.65234 -0.1875,-1.27734 -0.625,-1.71875l-11.75,-11.90625c-0.40234,-0.41016 -0.96484,-0.625 -1.5625,-0.625zM16.53125,27.75l-16.3125,20.625c-0.31641,0.39844 -0.29687,0.98438 0.0625,1.34375c0.19531,0.19531 0.46094,0.28125 0.71875,0.28125c0.21875,0 0.44141,-0.07422 0.625,-0.21875l20.59375,-16.3125z"></path></g></g></svg>